<svg width="137" height="61" viewBox="0 0 137 61" fill="none" xmlns="http://www.w3.org/2000/svg">
<rect width="137" height="61" fill="#1E1E1E"/>
<path d="M-473 -142C-473 -143.105 -472.105 -144 -471 -144H2222C2223.1 -144 2224 -143.105 2224 -142V1206C2224 1207.1 2223.1 1208 2222 1208H-471C-472.105 1208 -473 1207.1 -473 1206V-142Z" fill="#404040"/>
<path d="M-471 -143H2222V-145H-471V-143ZM2223 -142V1206H2225V-142H2223ZM2222 1207H-471V1209H2222V1207ZM-472 1206V-142H-474V1206H-472ZM-471 1207C-471.552 1207 -472 1206.55 -472 1206H-474C-474 1207.66 -472.657 1209 -471 1209V1207ZM2223 1206C2223 1206.55 2222.55 1207 2222 1207V1209C2223.66 1209 2225 1207.66 2225 1206H2223ZM2222 -143C2222.55 -143 2223 -142.552 2223 -142H2225C2225 -143.657 2223.66 -145 2222 -145V-143ZM-471 -145C-472.657 -145 -474 -143.657 -474 -142H-472C-472 -142.552 -471.552 -143 -471 -143V-145Z" fill="white" fill-opacity="0.1"/>
<g clip-path="url(#clip0_1_6)">
<rect width="1440" height="900" transform="translate(-159 -27)" fill="black"/>
<path d="M75.688 19.4721V26.5769C75.688 27.071 75.8088 27.4277 76.0476 27.6499C76.2864 27.8721 76.6902 27.9832 77.262 27.9832H79.0012V31.1117H76.6489C73.4949 31.1117 71.9179 29.5942 71.9179 26.5506V19.475H70.1552V16.4255H71.9179V12.7942H75.688V16.4255H79.0041V19.475H75.688V19.4721Z" fill="white"/>
<path d="M82.0226 30.4072C80.8819 29.7815 79.9858 28.8927 79.3373 27.7436C78.6858 26.5946 78.3616 25.2701 78.3616 23.7673C78.3616 22.2645 78.6976 20.94 79.3638 19.7909C80.0329 18.6419 80.9438 17.7531 82.1022 17.1274C83.2606 16.4988 84.5547 16.1859 85.9784 16.1859C87.4022 16.1859 88.6962 16.4988 89.8546 17.1274C91.0131 17.756 91.9239 18.6448 92.596 19.7909C93.2651 20.94 93.5953 22.2645 93.5953 23.7673C93.5953 25.2701 93.2504 26.5946 92.5695 27.7436C91.8827 28.8927 90.9541 29.7815 89.7898 30.4072C88.6225 31.0358 87.3167 31.3486 85.8723 31.3486C84.4279 31.3486 83.1634 31.0329 82.0256 30.4072H82.0226ZM87.7824 27.6237C88.3778 27.2992 88.8583 26.8051 89.212 26.1531C89.5687 25.4982 89.7485 24.7058 89.7485 23.7673C89.7485 22.3726 89.3801 21.2996 88.6402 20.5453C87.9003 19.7939 86.9983 19.4196 85.9283 19.4196C84.8583 19.4196 83.9622 19.7939 83.243 20.5453C82.5208 21.2996 82.1612 22.3697 82.1612 23.7673C82.1612 25.1648 82.5149 26.2379 83.2164 26.9893C83.9209 27.7436 84.8082 28.1149 85.8752 28.1149C86.5503 28.1149 87.1899 27.9541 87.7883 27.6267L87.7824 27.6237Z" fill="white"/>
<path d="M107.921 16.423V31.1091H104.151V29.2525C103.67 29.8899 103.043 30.3869 102.267 30.7495C101.492 31.112 100.649 31.2933 99.7411 31.2933C98.5827 31.2933 97.5599 31.0506 96.6667 30.5653C95.7735 30.08 95.0749 29.3636 94.5679 28.4192C94.0609 27.4749 93.8074 26.3463 93.8074 25.0394V16.423H97.551V24.5101C97.551 25.6767 97.8428 26.5743 98.4324 27.203C99.019 27.8286 99.8237 28.1444 100.835 28.1444C101.846 28.1444 102.68 27.8286 103.27 27.203C103.856 26.5743 104.151 25.6767 104.151 24.5101V16.423H107.921Z" fill="white"/>
<path d="M109.177 19.7764C109.799 18.6362 110.665 17.7532 111.771 17.1246C112.876 16.496 114.141 16.1831 115.567 16.1831C117.401 16.1831 118.922 16.6392 120.124 17.5485C121.324 18.4578 122.135 19.7326 122.544 21.3787H118.506C118.294 20.7413 117.931 20.2442 117.424 19.8817C116.917 19.5191 116.287 19.3379 115.538 19.3379C114.471 19.3379 113.625 19.7209 113.003 20.4928C112.375 21.2617 112.065 22.3523 112.065 23.7645C112.065 25.1767 112.378 26.2438 113.003 27.0128C113.625 27.7817 114.471 28.1648 115.538 28.1648C117.053 28.1648 118.043 27.4952 118.503 26.1503H122.542C122.132 27.7408 121.318 29.0039 120.11 29.9395C118.895 30.878 117.383 31.3458 115.567 31.3458C114.144 31.3458 112.876 31.0301 111.771 30.4044C110.665 29.7787 109.799 28.8928 109.177 27.7554C108.552 26.6152 108.242 25.2848 108.242 23.7645C108.242 22.2441 108.555 20.9138 109.177 19.7764Z" fill="white"/>
<path d="M134.22 16.9403C135.093 17.4256 135.777 18.1419 136.266 19.0863C136.755 20.0336 137 21.168 137 22.4925V31.1089H133.259V22.9983C133.259 21.8317 132.965 20.9371 132.375 20.3085C131.788 19.6798 130.984 19.367 129.97 19.367C128.956 19.367 128.122 19.6828 127.526 20.3085C126.928 20.9371 126.63 21.8317 126.63 22.9983V28.4453H122.889V11.4933H126.63V18.253C127.111 17.6157 127.753 17.1186 128.555 16.7561C129.357 16.3935 130.247 16.2122 131.228 16.2122C132.352 16.2122 133.348 16.4549 134.22 16.9403Z" fill="white"/>
<path d="M75.7823 48.6721C74.8184 48.2394 74.0579 47.6488 73.4949 46.9061C72.9348 46.1635 72.6283 45.3419 72.5723 44.4414H76.3424C76.4131 45.0057 76.6931 45.4735 77.1854 45.8448C77.6747 46.2161 78.2849 46.4003 79.0159 46.4003C79.747 46.4003 80.2864 46.2571 80.6873 45.9764C81.0882 45.6957 81.2886 45.3302 81.2886 44.8887C81.2886 44.4122 81.0439 44.0525 80.5546 43.8157C80.0653 43.576 79.2842 43.3157 78.2171 43.0321C77.1117 42.7661 76.2097 42.4942 75.5052 42.2106C74.8007 41.927 74.1964 41.4972 73.6865 40.9124C73.1765 40.3306 72.926 39.5441 72.926 38.5529C72.926 37.7401 73.1618 36.9975 73.6364 36.325C74.1051 35.6554 74.786 35.1233 75.6673 34.7345C76.5487 34.3456 77.5863 34.1526 78.7801 34.1526C80.5428 34.1526 81.9518 34.5912 83.0012 35.4654C84.0535 36.3425 84.6313 37.5179 84.7404 39.0061H81.156C81.1029 38.4213 80.8612 37.9565 80.422 37.6115C79.9857 37.2694 79.4021 37.0969 78.6711 37.0969C77.9931 37.0969 77.4713 37.2197 77.1058 37.4682C76.7403 37.7167 76.5575 38.0588 76.5575 38.5003C76.5575 38.9973 76.8081 39.3716 77.3063 39.6259C77.8044 39.8832 78.5797 40.1434 79.632 40.4095C80.702 40.6756 81.5863 40.9475 82.279 41.2311C82.9717 41.5147 83.5731 41.9503 84.083 42.5439C84.593 43.1374 84.8524 43.918 84.8701 44.8887C84.8701 45.7396 84.6342 46.4968 84.1626 47.1693C83.691 47.8418 83.013 48.368 82.1316 48.7452C81.2503 49.1253 80.2186 49.3183 79.0454 49.3183C77.8722 49.3183 76.7462 49.099 75.7853 48.6692L75.7823 48.6721Z" fill="white"/>
<path d="M93.4331 37.7369C94.0315 36.5879 94.8421 35.7049 95.8679 35.0851C96.8937 34.4652 98.0374 34.1582 99.302 34.1582C100.407 34.1582 101.371 34.3775 102.203 34.8219C103.031 35.2634 103.694 35.8219 104.192 36.4914V34.398H107.962V49.0841H104.192V46.9381C103.715 47.6252 103.048 48.1953 102.203 48.6456C101.357 49.0958 100.381 49.3239 99.2784 49.3239C98.0286 49.3239 96.8937 49.0052 95.8708 48.3678C94.8451 47.7304 94.0344 46.8357 93.4361 45.6779C92.8406 44.5201 92.5429 43.1898 92.5429 41.6899C92.5429 40.19 92.8406 38.886 93.4361 37.7399L93.4331 37.7369ZM103.659 39.421C103.302 38.7749 102.822 38.2808 102.217 37.9358C101.607 37.5908 100.962 37.4182 100.263 37.4182C99.5643 37.4182 98.9276 37.5878 98.341 37.9241C97.7515 38.2574 97.274 38.7515 96.9084 39.3947C96.5429 40.0409 96.3602 40.804 96.3602 41.687C96.3602 42.57 96.5429 43.3448 96.9084 44.0055C97.274 44.6663 97.7544 45.178 98.3528 45.5288C98.9482 45.8826 99.585 46.0609 100.263 46.0609C100.941 46.0609 101.607 45.8884 102.217 45.5464C102.822 45.2014 103.302 44.7072 103.659 44.0611C104.012 43.4149 104.192 42.643 104.192 41.7425C104.192 40.842 104.012 40.0672 103.659 39.424V39.421Z" fill="white"/>
<path d="M109.189 37.7488C109.814 36.6085 110.677 35.7255 111.783 35.0969C112.888 34.4683 114.153 34.1554 115.579 34.1554C117.413 34.1554 118.934 34.6115 120.133 35.5208C121.336 36.4301 122.144 37.7049 122.553 39.351H118.515C118.303 38.7136 117.94 38.2166 117.433 37.854C116.923 37.4915 116.295 37.3102 115.547 37.3102C114.48 37.3102 113.631 37.6932 113.009 38.4651C112.384 39.234 112.074 40.3246 112.074 41.7368C112.074 43.149 112.387 44.2162 113.009 44.9851C113.631 45.7541 114.48 46.1371 115.547 46.1371C117.062 46.1371 118.049 45.4675 118.512 44.1226H122.55C122.141 45.7131 121.327 46.9762 120.116 47.9118C118.904 48.8503 117.389 49.3181 115.573 49.3181C114.147 49.3181 112.882 49.0024 111.777 48.3767C110.671 47.751 109.808 46.8651 109.183 45.7277C108.561 44.5875 108.248 43.2572 108.248 41.7368C108.248 40.2164 108.561 38.8861 109.183 37.7488H109.189Z" fill="white"/>
<path d="M131.665 49.0813L126.639 42.8244V49.0813H122.898V29.4628H126.639V40.6228L131.612 34.3923H136.475L129.955 41.7631L136.531 49.0784H131.665V49.0813Z" fill="white"/>
<path d="M89.8929 31.954C89.8546 31.9744 89.8251 32.0095 89.7868 32.03C88.6903 32.6177 87.464 32.9071 86.1228 32.9422V34.3924H84.3601V37.4419H86.1228V44.5175C86.1228 47.5582 87.6998 49.0786 90.8539 49.0786H93.2061V45.9501H91.4699C90.901 45.9501 90.4943 45.839 90.2525 45.6168C90.0138 45.3975 89.8929 45.0379 89.8929 44.5438V37.439H93.2061V34.3895H89.8929V31.9481V31.954Z" fill="white"/>
<path d="M56.13 47.3245C55.8352 47.0643 55.5346 46.8099 55.2192 46.5702C52.466 44.4738 49.1646 43.3657 45.7512 43.3657C45.0702 43.3657 44.3834 43.4096 43.6937 43.5002C39.564 44.0353 35.8941 46.1345 33.3561 49.4121C30.827 52.678 29.7245 56.7245 30.2551 60.809C30.3878 60.809 30.5175 60.8178 30.6501 60.8178C41.2677 60.8178 50.6237 55.4614 56.1241 47.3274L56.13 47.3245Z" fill="white"/>
<path d="M8.41272 34.0971L9.04648 33.0563C9.36483 32.5329 10.0516 32.3662 10.5793 32.682L12.6751 33.9422C13.2027 34.2579 13.3707 34.9392 13.0524 35.4625L12.4186 36.5034C9.79225 40.8014 8.14743 45.4794 7.51073 50.33C9.55938 52.669 11.9559 54.6981 14.6294 56.3266C14.0635 43.9854 21.7569 32.4043 33.6332 28.2145L34.7887 27.8081C35.3694 27.6034 36.009 27.9046 36.2154 28.4805L37.0378 30.7699C37.2441 31.3458 36.9405 31.9803 36.3598 32.185L35.2043 32.5914C24.6368 36.3192 18.0252 47.0466 19.4843 58.0984L19.5697 58.7534C21.4651 59.4843 23.4519 60.0311 25.5094 60.3761C25.1173 55.4144 26.5676 50.5492 29.645 46.5758C32.9434 42.3159 37.7187 39.588 43.0894 38.8892C48.4601 38.1904 53.7807 39.6114 58.0755 42.8831C58.2081 42.9854 58.3378 43.0936 58.4675 43.1959C59.2103 41.6083 59.8205 39.9505 60.2833 38.2284C56.074 34.027 50.5382 31.5534 44.575 31.2406L43.3517 31.1763C42.7357 31.1441 42.264 30.6237 42.2965 30.0126L42.4262 27.5859C42.4586 26.9748 42.9833 26.507 43.5994 26.5392L44.8226 26.6035C50.8743 26.9222 56.5545 29.1004 61.2089 32.8165C61.2708 32.0183 61.315 31.2172 61.315 30.4044C61.315 28.0771 61.0438 25.8141 60.5427 23.6358C54.0666 20.1185 46.4557 18.528 38.5912 19.5513C31.1336 20.5191 24.2831 23.7031 18.7886 28.7554L17.8896 29.5828C17.4386 29.998 16.7311 29.9717 16.3125 29.5243L14.6471 27.7408C14.2285 27.2935 14.2551 26.5918 14.7061 26.1766L15.6051 25.3492C21.8188 19.639 29.5565 16.0399 37.984 14.9464C45.1587 14.0137 52.1477 15.0048 58.4233 17.5134C53.5301 7.16911 42.9391 0 30.656 0C13.7274 0 0.0117955 13.5956 4.72428e-06 30.3869C-0.00294297 35.7081 1.37363 40.7107 3.79369 45.0613C4.77527 41.2165 6.32576 37.515 8.41272 34.0971Z" fill="white"/>
</g>
<defs>
<clipPath id="clip0_1_6">
<rect width="1440" height="900" fill="white" transform="translate(-159 -27)"/>
</clipPath>
</defs>
</svg>
